<?xml version="1.0" encoding="utf-8"?>
<!-- Generator: Adobe Illustrator 23.0.3, SVG Export Plug-In . SVG Version: 6.00 Build 0)  -->
<svg version="1.1" id="Layer_1" xmlns="http://www.w3.org/2000/svg" xmlns:xlink="http://www.w3.org/1999/xlink" x="0px" y="0px"
	 viewBox="0 0 860.7 948" style="enable-background:new 0 0 860.7 948;" xml:space="preserve">
<style type="text/css">
	.st0{display:none;fill-rule:evenodd;clip-rule:evenodd;fill:#FF4500;}
	.st1{display:none;fill:#222222;}
	.st2{fill-rule:evenodd;clip-rule:evenodd;fill:#FF4500;}
	.st3{display:none;fill:#FFFFFF;}
	.st4{fill:#FFFFFF;}
</style>
<circle class="st0" cx="2256.6" cy="340" r="54.4"/>
<path class="st1" d="M1479,572.1c26.7,0,42.1-20,41.1-39.5c-0.3-7.4-1.1-14.8-2.6-22.1c-16.4-70.9-73.9-123.3-142.3-123.3
	c-81.1,0-146.9,73.4-146.9,163.8s65.7,163.8,146.9,163.8c50.9,0,87.3-18.5,113.5-47.8c12.8-14.4,10.3-36.5-5.1-47.3
	c-12.8-8.7-28.8-5.6-40.6,4.1c-11.3,9.8-32.9,29.3-67.8,29.3c-41.1,0-76-35.4-83.7-82.2H1479L1479,572.1z M1374.8,449.4
	c37,0,68.8,28.8,80.6,68.3h-161.3C1306,477.6,1337.8,449.4,1374.8,449.4z M1231.5,419.6c0-15.4-11.3-27.7-25.7-30.3
	c-44.7-6.7-86.8,9.8-110.9,40.1v-4.1c0-19-15.4-30.8-30.8-30.8c-17,0-30.8,13.8-30.8,30.8v251.6c0,16.4,12.3,30.8,28.8,31.8
	c18,1,32.9-12.8,32.9-30.8V547.9c0-57.5,43.1-104.8,102.7-98.1h6.2C1219.2,448.8,1231.5,435.5,1231.5,419.6L1231.5,419.6z
	 M2287.4,452.4c0-17-13.8-30.8-30.8-30.8c-17,0-30.8,13.8-30.8,30.8v225.4c0,17,13.8,30.8,30.8,30.8c17-0.1,30.8-13.8,30.8-30.8
	V452.4z M1829.3,281.9c0-17-13.8-30.8-30.8-30.8c-17,0.1-30.8,13.8-30.8,30.8v137.1c-21.1-21.1-47.3-31.3-78.6-31.3
	c-81.1,0-146.9,73.4-146.9,163.8c0,90.4,65.7,163.8,146.9,163.8c31.3,0,58-10.8,79.1-31.8c2.6,14.4,15.4,25.2,30.3,25.2
	c17,0,30.8-13.8,30.8-30.8L1829.3,281.9z M1689.6,654.3c-47.3,0-85.3-45.7-85.3-102.7c0-56.5,38-102.7,85.3-102.7
	c47.3,0,85.3,45.7,85.3,102.7S1736.3,654.3,1689.6,654.3z M2150.8,281.9c0-17-13.8-30.8-30.8-30.8c-17,0-30.8,13.8-30.8,30.8v137.1
	c-21.1-21.1-47.2-31.3-78.6-31.3c-81.1,0-146.9,73.4-146.9,163.8c0,90.4,65.7,163.8,146.9,163.8c31.3,0,58-10.8,79.1-31.8
	c2.6,14.4,15.4,25.2,30.3,25.2c17,0,30.8-13.8,30.8-30.8V281.9z M2010.6,654.3c-47.3,0-85.2-45.7-85.2-102.7
	c0-56.5,38-102.7,85.2-102.7c47.3,0,85.3,45.7,85.3,102.7S2057.8,654.3,2010.6,654.3z M2443.5,678.4v-229h27.2
	c14.4,0,27.2-10.8,28.2-25.7c1-15.9-11.8-29.3-27.2-29.3h-28.2v-43.1c0-16.4-12.3-30.8-28.8-31.8c-18-1-32.9,12.8-32.9,30.8v44.7
	h-25.7c-14.4,0-27.2,10.8-28.2,25.7c-1,15.9,11.8,29.3,27.2,29.3h26.2v229c0.1,17,13.8,30.8,30.8,30.8
	C2430.2,708.7,2443.5,695.3,2443.5,678.4L2443.5,678.4z"/>
<circle class="st2" cx="430.4" cy="474" r="430.4"/>
<path class="st3" d="M717.4,474c0-34.6-27.9-62.6-62.5-62.7c-0.1,0-0.1,0-0.2,0c-16.9,0-32.4,6.7-43.7,17.5
	C568,398,508.9,378,443.2,375.4L472,240.8l93.5,20c1.1,24.7,22.1,43.7,46.7,42.6c23.9-1.1,42.6-20.8,42.6-44.6
	c0-24.7-20-44.7-44.7-44.7c-17.1,0-32.6,9.8-40.1,25.2l-104.2-22.1c-3.1-0.5-6.2,0-8.2,1.5c-2.6,1.5-4.1,4.1-4.6,7.2l-31.8,150
	c-66.8,2.1-126.8,22.1-170.5,53.4c-11.8-11.2-27.4-17.5-43.7-17.5c-34.6,0-62.6,27.9-62.7,62.5c0,0.1,0,0.1,0,0.2
	c0,25.7,15.4,47.2,37,57c-1,6.3-1.6,12.6-1.5,19c0,96.5,112.5,175.1,251.1,175.1S682,647.6,682,550.5c0-6.2-0.5-12.8-1.5-19
	C703,521.2,717.4,498.8,717.4,474L717.4,474z M287.1,518.7c0-24.7,20-44.7,44.7-44.7c24.6,0,44.7,20,44.7,44.7
	c0,24.6-20,44.7-44.7,44.7C307.1,563.9,287.1,543.3,287.1,518.7z M537.2,637.3c-30.8,30.8-89.4,32.9-106.3,32.9
	c-17.5,0-76-2.6-106.3-32.9c-4.5-4.4-4.6-11.7-0.2-16.2c0.1-0.1,0.1-0.1,0.2-0.2c4.4-4.5,11.7-4.6,16.2-0.2c0.1,0.1,0.1,0.1,0.2,0.2
	c19.5,19.5,60.6,26.2,89.9,26.2s70.9-6.7,89.9-26.2c4.4-4.5,11.7-4.6,16.2-0.2c0.1,0.1,0.1,0.1,0.2,0.2
	C541.3,625.6,541.3,632.6,537.2,637.3z M529,563.9c-24.6,0-44.7-20-44.7-44.7c0-24.6,20-44.7,44.7-44.7c24.7,0,44.7,20,44.7,44.7
	C573.6,543.3,553.6,563.9,529,563.9z"/>
<path class="st4" d="M260.9,536.2c-5.2-4.1-12.8-3.2-16.9,2l-59.6,75.6c-26.6,33.7-34.2,78.5-20.4,119.1l11.4,33.3
	c1.9,5.7,7.1,9.7,13.1,10.2l35.2,3.2c42.8,3.8,84.7-14.2,111.3-47.9l59.6-75.6c4.1-5.2,3.2-12.8-2-16.9L260.9,536.2z"/>
<path class="st4" d="M394.6,656.1c4.1-5.2,3.2-12.8-2-16.9L328,588.8L181.7,774.2c2,1.2,4.3,2,6.7,2.3l35.2,3.2
	c42.8,3.8,84.7-14.2,111.3-47.9L394.6,656.1z"/>
<path class="st4" d="M284.8,670.1c-6.5,0.8-13.3-0.9-18.9-5.3c-11.1-8.7-13.1-24.8-4.3-35.8l241.5-306.3c8.7-11.1,24.9-13,36-4.3
	c11.1,8.7,13.1,24.8,4.3,35.8L301.9,660.5C297.5,666,291.3,669.3,284.8,670.1z"/>
<path class="st4" d="M573.9,364.7c-20.2,2.4-41.3-2.8-58.5-16.3c-34.4-26.9-40.4-76.8-13.4-111.1l28.5-36.2c6.6-8.3,18.6-9.8,27-3.2
	l94.7,74.1c8.3,6.5,9.8,18.6,3.2,26.9l-28.5,36.2C613.4,352.2,594.1,362.3,573.9,364.7z M548.9,239.9L532.2,261
	c-14,17.7-10.9,43.4,6.9,57.4c8.6,6.7,19.3,9.7,30.2,8.4c10.9-1.3,20.6-6.8,27.4-15.3l16.6-21.1L548.9,239.9z"/>
<path class="st4" d="M284.8,670.1c6.5-0.8,12.7-4,17.1-9.6l241.5-306.3c8.4-10.7,6.9-26-3.2-34.9L267.1,665.7
	C272.5,669.4,278.8,670.8,284.8,670.1z"/>
<path class="st4" d="M573.9,364.7c20.2-2.4,39.5-12.5,53-29.7l28.5-36.2c6.6-8.3,5.1-20.4-3.2-26.9L606,235.9L582.3,266l31.1,24.3
	l-16.6,21.1c-6.8,8.6-16.5,14-27.4,15.3c-10.4,1.2-20.6-1.4-29-7.5l-23.8,30.1C533.6,362.2,554.2,367.1,573.9,364.7z"/>
<path class="st4" d="M460.2,648.6c-5.5,3.8-6.8,11.3-3.1,16.8l54.6,79.3c24.3,35.4,64.9,55.9,107.7,54.7l35.2-1.1
	c6-0.2,11.3-3.9,13.6-9.5l13.4-32.7c16.3-39.8,11.5-85.1-12.8-120.5l-54.6-79.3c-3.8-5.5-11.3-6.8-16.7-3.1L460.2,648.6z"/>
<path class="st4" d="M614.3,556.3c-3.8-5.5-11.3-6.8-16.7-3.1L530.2,600l133.9,194.6c1.8-1.5,3.2-3.5,4.1-5.7l13.4-32.7
	c16.3-39.8,11.5-85.1-12.8-120.5L614.3,556.3z"/>
<path class="st4" d="M595.2,665.3c-1.2,6.5-4.8,12.5-10.6,16.5c-11.6,8.1-27.5,5.1-35.5-6.5L327.9,353.9c-8-11.6-5.1-27.6,6.5-35.7
	c11.6-8.1,27.5-5.1,35.5,6.5l221.2,321.3C595.1,651.9,596.3,658.8,595.2,665.3z"/>
<path class="st4" d="M389,298.8c-3.7,20-14.9,38.6-32.9,51.1c-35.9,24.9-85.3,15.9-110.1-20.1l-26.1-37.9c-6-8.7-3.8-20.7,4.9-26.7
	l98.8-68.5c8.7-6,20.6-3.9,26.6,4.9l26.1,37.9C388.7,257.4,392.7,278.8,389,298.8z M262.3,285.8l15.2,22.1
	c12.8,18.6,38.3,23.2,56.8,10.4c9-6.2,15-15.6,17-26.4c2-10.8-0.4-21.7-6.6-30.7l-15.2-22.1L262.3,285.8z"/>
<path class="st4" d="M597.2,665.3c1.2-6.5-0.1-13.4-4.1-19.2L371.9,324.8c-7.7-11.2-22.8-14.3-34.3-7.3l250.1,363.3
	C592.8,676.9,596.1,671.3,597.2,665.3z"/>
<path class="st4" d="M391,298.8c3.7-20-0.3-41.4-12.7-59.4l-26.1-37.9c-6-8.7-17.9-10.9-26.6-4.9L277.4,230l21.8,31.6l32.4-22.5
	l15.2,22.1c6.2,9,8.5,19.9,6.6,30.7c-1.9,10.3-7.5,19.3-15.8,25.5l21.8,31.6C376.6,336.6,387.4,318.3,391,298.8z"/>
</svg>
